<?xml version="1.0" standalone="no"?>
<!DOCTYPE svg PUBLIC "-//W3C//DTD SVG 20010904//EN"
 "http://www.w3.org/TR/2001/REC-SVG-20010904/DTD/svg10.dtd">
<svg version="1.0" xmlns="http://www.w3.org/2000/svg"
 width="700.000000pt" height="700.000000pt" viewBox="0 0 700.000000 700.000000"
 preserveAspectRatio="xMidYMid meet">
<metadata>
Created by potrace 1.11, written by Peter Selinger 2001-2013
</metadata>
<g transform="translate(0.000000,700.000000) scale(0.100000,-0.100000)"
fill="#000000" stroke="none">
<path d="M3225 6994 c-246 -25 -498 -70 -680 -123 -1007 -289 -1826 -1002
-2249 -1956 -102 -228 -176 -461 -226 -705 -56 -278 -64 -367 -64 -710 0 -343
8 -432 64 -710 224 -1101 979 -2035 2015 -2494 134 -60 265 -109 272 -102 3 2
-20 12 -51 22 l-56 18 2 2360 3 2361 24 49 c26 52 80 98 140 118 28 10 490 13
2102 16 l2065 2 62 -127 c64 -134 118 -262 147 -351 9 -29 19 -51 21 -49 7 7
-55 174 -112 302 -423 955 -1242 1667 -2249 1956 -126 37 -354 83 -510 105
-114 15 -617 28 -720 18z m-1155 -4710 l0 -1976 -162 85 c-374 193 -651 402
-961 724 l-67 70 2 1459 3 1459 25 44 c14 24 37 53 52 64 57 43 98 46 616 46
l492 1 0 -1976z"/>
<path d="M2675 4587 c-3 -7 -4 -131 -3 -277 l3 -265 1973 -3 1972 -2 0 280 0
280 -1970 0 c-1580 0 -1972 -3 -1975 -13z"/>
<path d="M6833 4555 c31 -105 67 -246 82 -318 10 -48 20 -85 23 -83 10 11 -87
399 -104 415 -4 3 -4 -3 -1 -14z"/>
<path d="M6942 4120 c-1 -14 5 -56 12 -95 8 -38 14 -59 14 -45 1 14 -5 57 -12
95 -8 39 -14 59 -14 45z"/>
<path d="M6977 3855 c3 -49 7 -92 9 -94 7 -7 3 82 -6 134 -6 37 -7 26 -3 -40z"/>
<path d="M6994 3625 c0 -66 1 -92 3 -57 2 34 2 88 0 120 -2 31 -3 3 -3 -63z"/>
<path d="M4920 2900 l0 -770 850 0 850 0 0 770 0 770 -850 0 -850 0 0 -770z"/>
<path d="M2680 3445 l0 -55 1015 0 1015 0 0 55 0 55 -1015 0 -1015 0 0 -55z"/>
<path d="M6994 3375 c0 -66 1 -92 3 -57 2 34 2 88 0 120 -2 31 -3 3 -3 -63z"/>
<path d="M6976 3154 c-4 -47 -5 -88 -3 -91 3 -2 8 34 12 82 4 47 5 88 3 91 -3
2 -8 -34 -12 -82z"/>
<path d="M2674 3217 c-3 -8 -4 -45 -2 -83 l3 -69 1018 -3 1017 -2 0 85 0 85
-1015 0 c-843 0 -1017 -2 -1021 -13z"/>
<path d="M6951 2955 c-8 -48 -11 -88 -9 -91 3 -2 10 34 18 82 7 47 10 87 8 90
-3 2 -10 -34 -17 -81z"/>
<path d="M2680 2815 l0 -85 1015 0 1015 0 0 85 0 85 -1015 0 -1015 0 0 -85z"/>
<path d="M6915 2763 c-15 -72 -51 -213 -82 -318 -3 -11 -3 -17 1 -14 17 16
114 404 104 415 -3 2 -13 -35 -23 -83z"/>
<path d="M2677 2623 c-4 -3 -7 -42 -7 -85 l0 -78 1020 0 1020 0 0 85 0 85
-1013 0 c-558 0 -1017 -3 -1020 -7z"/>
<path d="M6795 2338 c-29 -89 -83 -217 -147 -350 l-62 -128 -1958 0 -1959 0 3
-82 3 -83 1907 -3 1907 -2 -47 -75 -47 -75 -1860 -2 -1860 -3 0 -85 0 -85
1792 -5 1792 -5 -58 -70 -59 -70 -1733 -5 -1734 -5 0 -55 0 -55 1675 -3 1674
-2 -79 -80 -80 -80 -1598 0 -1598 0 3 -82 3 -83 1495 -5 1494 -5 -94 -70 -94
-70 -1401 -5 -1400 -5 0 -85 0 -85 1243 -5 1243 -5 -96 -47 -95 -48 -1145 0
-1145 0 0 -85 0 -85 918 -1 c780 0 912 -3 882 -14 -46 -18 -27 -18 30 -1 977
296 1780 1007 2194 1941 57 128 119 295 112 302 -2 2 -12 -20 -21 -49z"/>
<path d="M2680 2215 l0 -85 1015 0 1015 0 0 85 0 85 -1015 0 -1015 0 0 -85z"/>
<path d="M2410 171 c25 -15 279 -83 293 -78 7 3 5 6 -5 6 -9 1 -72 17 -140 36
-166 48 -166 48 -148 36z"/>
<path d="M4350 109 c-36 -10 -49 -16 -29 -14 41 6 131 33 109 33 -8 0 -44 -8
-80 -19z"/>
<path d="M2765 75 c28 -7 59 -13 70 -13 11 0 -2 6 -30 13 -27 7 -59 13 -70 13
-11 0 3 -6 30 -13z"/>
<path d="M4220 80 c-20 -6 -21 -8 -5 -8 11 0 31 4 45 8 20 6 21 8 5 8 -11 0
-31 -4 -45 -8z"/>
<path d="M4158 63 c6 -2 18 -2 25 0 6 3 1 5 -13 5 -14 0 -19 -2 -12 -5z"/>
<path d="M2873 53 c9 -2 23 -2 30 0 6 3 -1 5 -18 5 -16 0 -22 -2 -12 -5z"/>
<path d="M4103 53 c9 -2 23 -2 30 0 6 3 -1 5 -18 5 -16 0 -22 -2 -12 -5z"/>
<path d="M2933 43 c9 -2 23 -2 30 0 6 3 -1 5 -18 5 -16 0 -22 -2 -12 -5z"/>
<path d="M4043 43 c9 -2 23 -2 30 0 6 3 -1 5 -18 5 -16 0 -22 -2 -12 -5z"/>
<path d="M2993 33 c9 -2 25 -2 35 0 9 3 1 5 -18 5 -19 0 -27 -2 -17 -5z"/>
<path d="M3973 33 c9 -2 25 -2 35 0 9 3 1 5 -18 5 -19 0 -27 -2 -17 -5z"/>
<path d="M3078 23 c12 -2 30 -2 40 0 9 3 -1 5 -23 4 -22 0 -30 -2 -17 -4z"/>
<path d="M3888 23 c12 -2 30 -2 40 0 9 3 -1 5 -23 4 -22 0 -30 -2 -17 -4z"/>
<path d="M3163 13 c15 -2 39 -2 55 0 15 2 2 4 -28 4 -30 0 -43 -2 -27 -4z"/>
<path d="M3793 13 c15 -2 37 -2 50 0 12 2 0 4 -28 4 -27 0 -38 -2 -22 -4z"/>
<path d="M3313 3 c31 -2 83 -2 115 0 31 2 5 3 -58 3 -63 0 -89 -1 -57 -3z"/>
<path d="M3573 3 c31 -2 83 -2 115 0 31 2 5 3 -58 3 -63 0 -89 -1 -57 -3z"/>
</g>
</svg>
